<svg xmlns="http://www.w3.org/2000/svg" width="420" height="236" viewBox="0 0 420 236">
<style>
.bg{fill:#ffffff}.edge{stroke:#d0d7de;fill:none}.hd{fill:#f6f8fa}.t{fill:#1f2328}.m{fill:#59636e}
.s{fill:#eaeef2}.s2{fill:#d0d7de}.ln{stroke:#d0d7de}
.t,.m{font-family:ui-monospace,SFMono-Regular,Consolas,monospace}
@media (prefers-color-scheme:dark){.bg{fill:#0d1117}.edge{stroke:#30363d}.hd{fill:#161b22}.t{fill:#e6edf3}
.m{fill:#9198a1}.s{fill:#21262d}.s2{fill:#30363d}.ln{stroke:#30363d}}
</style>
<rect class="bg" width="420" height="236" rx="8"/>
<path class="hd" d="M8 0H412A8 8 0 0 1 420 8V34H0V8A8 8 0 0 1 8 0Z"/>
<circle cx="18" cy="17" r="4" fill="#5794f2"/>
<text class="t" x="30" y="22" font-size="13" font-weight="700">Newsletters</text>
<text class="m" x="406" y="22" font-size="10.5" text-anchor="end">desktop reader</text>
<line class="ln" x1="0" y1="34.5" x2="420" y2="34.5"/>
<g transform="translate(14 46)"><rect class="s" width="140" height="136" rx="4"/><rect x="6" y="6" width="128" height="26" rx="3" class="bg"/><circle cx="14" cy="19" r="3" fill="#5794f2"/><rect class="s2" x="22" y="11" width="70" height="4" rx="2"/><rect class="s2" x="22" y="20" width="96" height="4" rx="2"/><rect x="6" y="38" width="128" height="26" rx="3" fill="#5794f2" opacity=".22"/><rect class="s2" x="22" y="43" width="70" height="4" rx="2"/><rect class="s2" x="22" y="52" width="96" height="4" rx="2"/><rect x="6" y="70" width="128" height="26" rx="3" class="bg"/><circle cx="14" cy="83" r="3" fill="#5794f2"/><rect class="s2" x="22" y="75" width="70" height="4" rx="2"/><rect class="s2" x="22" y="84" width="96" height="4" rx="2"/><rect x="6" y="102" width="128" height="26" rx="3" class="bg"/><rect class="s2" x="22" y="107" width="70" height="4" rx="2"/><rect class="s2" x="22" y="116" width="96" height="4" rx="2"/><rect class="s" x="148" width="244" height="136" rx="4"/><text class="t" x="162" y="26" font-size="13" font-weight="700" style="font-family:Georgia,serif">The Weekly Issue</text><rect class="s2" x="162" y="38" width="210" height="4" rx="2"/><rect class="s2" x="162" y="48" width="196" height="4" rx="2"/><rect class="s2" x="162" y="58" width="214" height="4" rx="2"/><rect x="160" y="68" width="150" height="10" rx="2" fill="#e0b400" opacity=".45"/><rect class="s2" x="162" y="71" width="146" height="4" rx="2"/><rect class="s2" x="162" y="88" width="206" height="4" rx="2"/><rect class="s2" x="162" y="98" width="188" height="4" rx="2"/><rect class="s2" x="162" y="108" width="120" height="4" rx="2"/></g>
<text class="t" x="14" y="198" font-size="11">Reads the Gmail labels your filters fill. Highlights stay local.</text>
<text class="m" x="14" y="219" font-size="10">Go · Wails · Svelte · IMAP</text>
<rect class="edge" x=".5" y=".5" width="419" height="235" rx="7.5"/>
</svg>